<?xml version="1.0" encoding="UTF-8"?>
<svg width="7px" height="12px" viewBox="0 0 7 12" version="1.1" xmlns="http://www.w3.org/2000/svg" xmlns:xlink="http://www.w3.org/1999/xlink">
    <title>arrow_Regular_right</title>
    <g id="index" stroke="none" stroke-width="1" fill="none" fill-rule="evenodd">
        <g id="Single" transform="translate(-202.000000, -2206.000000)" fill="#3A3A3A" fill-rule="nonzero">
            <g id="footer" transform="translate(202.000000, 2122.000000)">
                <g id="Group" transform="translate(0.000000, 78.000000)">
                    <g id="arrow_Regular_right" transform="translate(3.500000, 12.000000) scale(-1, 1) translate(-3.500000, -12.000000) translate(0.000000, 6.000000)">
                        <path d="M6.8596882,5.6754717 L1.13808463,0.135849057 C0.951002227,-0.0452830189 0.654788419,-0.0452830189 0.467706013,0.135849057 L0.140311804,0.452830189 C-0.0467706013,0.633962264 -0.0467706013,0.920754717 0.140311804,1.08679245 L5.20712695,5.99245283 L0.140311804,10.8981132 C-0.0467706013,11.0792453 -0.0467706013,11.3660377 0.140311804,11.5320755 L0.467706013,11.8641509 C0.654788419,12.045283 0.951002227,12.045283 1.12249443,11.8641509 L6.53229399,6.64150943 C6.53229399,6.64150943 6.53229399,6.64150943 6.53229399,6.64150943 L6.8596882,6.3245283 C7.0467706,6.14339623 7.0467706,5.85660377 6.8596882,5.6754717 Z" id="Path"></path>
                    </g>
                </g>
            </g>
        </g>
    </g>
</svg>